<svg width="24" height="24" viewBox="0 0 24 24" fill="none" xmlns="http://www.w3.org/2000/svg">
<g opacity="0.7">
<path d="M17.2116 20.0128C17.2745 20.2015 17.2598 20.4075 17.1709 20.5854C17.0819 20.7634 16.9259 20.8987 16.7372 20.9616C16.5485 21.0245 16.3425 21.0098 16.1646 20.9209C15.9866 20.8319 15.8513 20.6759 15.7884 20.4872L15.0384 18.2372C15.0073 18.1437 14.9949 18.0451 15.0018 17.9468C15.0088 17.8486 15.0351 17.7527 15.0791 17.6646C15.1232 17.5765 15.1842 17.4979 15.2586 17.4334C15.333 17.3688 15.4194 17.3196 15.5128 17.2884C15.6063 17.2573 15.7049 17.2448 15.8032 17.2518C15.9014 17.2588 15.9973 17.2851 16.0854 17.3291C16.1735 17.3732 16.2521 17.4341 16.3166 17.5086C16.3812 17.583 16.4304 17.6694 16.4616 17.7628L17.2116 20.0128ZM12 17.25C11.8011 17.25 11.6103 17.329 11.4697 17.4697C11.329 17.6103 11.25 17.8011 11.25 18V21C11.25 21.1989 11.329 21.3897 11.4697 21.5303C11.6103 21.671 11.8011 21.75 12 21.75C12.1989 21.75 12.3897 21.671 12.5303 21.5303C12.671 21.3897 12.75 21.1989 12.75 21V18C12.75 17.8011 12.671 17.6103 12.5303 17.4697C12.3897 17.329 12.1989 17.25 12 17.25ZM8.48719 17.2884C8.39374 17.2573 8.29508 17.2448 8.19683 17.2518C8.09857 17.2588 8.00266 17.2851 7.91456 17.3291C7.82646 17.3732 7.74789 17.4341 7.68336 17.5085C7.61882 17.583 7.56958 17.6694 7.53844 17.7628L6.78844 20.0128C6.72553 20.2015 6.74017 20.4075 6.82913 20.5854C6.9181 20.7634 7.07409 20.8987 7.26281 20.9616C7.45153 21.0245 7.65751 21.0098 7.83543 20.9209C8.01336 20.8319 8.14866 20.6759 8.21156 20.4872L8.96156 18.2372C8.99272 18.1437 9.00516 18.0451 8.99818 17.9468C8.9912 17.8486 8.96494 17.7527 8.92089 17.6646C8.87684 17.5765 8.81586 17.4979 8.74145 17.4334C8.66703 17.3688 8.58064 17.3196 8.48719 17.2884ZM23.25 10.5C23.25 12.0206 21.9966 13.3959 19.7203 14.3709C17.6456 15.2606 14.9062 15.75 12 15.75C9.09375 15.75 6.35437 15.2606 4.27969 14.3709C2.00344 13.3959 0.75 12.0206 0.75 10.5C0.75 9.71531 1.09406 8.55093 2.73469 7.45312C3.80063 6.73968 5.26031 6.16312 6.97031 5.77968C7.44717 5.02416 8.08762 4.38537 8.84438 3.91048C9.60115 3.43559 10.4549 3.13672 11.3426 3.03593C12.2304 2.93515 13.1294 3.03502 13.9733 3.32817C14.8173 3.62133 15.5847 4.10029 16.2188 4.72968C16.5422 5.04973 16.8287 5.40508 17.0728 5.78906C20.9466 6.66468 23.25 8.41312 23.25 10.5ZM7.5 9.07781V9.35906C7.49904 9.52753 7.55541 9.69132 7.65985 9.82352C7.76428 9.95573 7.91057 10.0485 8.07469 10.0866C9.36355 10.3707 10.6802 10.5094 12 10.5C13.319 10.5106 14.6351 10.3732 15.9234 10.0903C16.0878 10.0524 16.2344 9.95981 16.3392 9.8276C16.444 9.6954 16.5007 9.5315 16.5 9.36281V9C16.5001 8.40397 16.3817 7.81386 16.1518 7.26395C15.9219 6.71404 15.5851 6.21527 15.1608 5.79661C14.7366 5.37796 14.2334 5.04775 13.6805 4.82516C13.1276 4.60258 12.536 4.49205 11.94 4.5C9.49219 4.53187 7.5 6.58593 7.5 9.07781ZM21.75 10.5C21.75 9.40312 20.1909 8.26031 17.8219 7.53843C17.9404 8.01658 18.0002 8.50738 18 9V9.3675C18.0008 9.87498 17.829 10.3676 17.5128 10.7646C17.1966 11.1615 16.7548 11.4391 16.26 11.5519C14.8613 11.8603 13.4323 12.0106 12 12C10.5677 12.0105 9.13876 11.8602 7.74 11.5519C7.2452 11.4391 6.80343 11.1615 6.48724 10.7646C6.17105 10.3676 5.99923 9.87498 6 9.3675V9.08062C6.00016 8.55796 6.06727 8.03748 6.19969 7.53187C3.8175 8.25 2.25 9.39843 2.25 10.5C2.25 12.2737 6.25406 14.25 12 14.25C17.7459 14.25 21.75 12.2737 21.75 10.5Z" fill="white"/>
</g>
</svg>
