<svg width="40" height="40" viewBox="0 0 40 40" fill="none" xmlns="http://www.w3.org/2000/svg">
<path d="M33.3846 24.1156L20.8846 11.6156C20.7685 11.4994 20.6306 11.4072 20.4789 11.3443C20.3271 11.2814 20.1645 11.249 20.0002 11.249C19.8359 11.249 19.6733 11.2814 19.5215 11.3443C19.3698 11.4072 19.2319 11.4994 19.1158 11.6156L6.61583 24.1156C6.38128 24.3502 6.24951 24.6683 6.24951 25C6.24951 25.3317 6.38128 25.6498 6.61583 25.8844C6.85038 26.1189 7.1685 26.2507 7.50021 26.2507C7.83191 26.2507 8.15003 26.1189 8.38458 25.8844L20.0002 14.2672L31.6158 25.8844C31.732 26.0005 31.8698 26.0926 32.0216 26.1555C32.1733 26.2183 32.336 26.2507 32.5002 26.2507C32.6645 26.2507 32.8271 26.2183 32.9788 26.1555C33.1306 26.0926 33.2684 26.0005 33.3846 25.8844C33.5007 25.7682 33.5928 25.6304 33.6557 25.4786C33.7186 25.3269 33.7509 25.1642 33.7509 25C33.7509 24.8357 33.7186 24.6731 33.6557 24.5214C33.5928 24.3696 33.5007 24.2318 33.3846 24.1156Z" fill="white"/>
</svg>
