<svg width="24" height="24" viewBox="0 0 24 24" fill="none" xmlns="http://www.w3.org/2000/svg">
<g opacity="0.7">
<path d="M22.9791 5.68875C22.2619 4.45219 20.3691 4.17375 17.4947 4.87688C16.164 3.84792 14.5713 3.21279 12.8977 3.04366C11.2241 2.87452 9.53658 3.17816 8.02689 3.92007C6.5172 4.66198 5.24584 5.81242 4.35724 7.2407C3.46864 8.66899 2.99842 10.3179 3.00001 12C3.00013 12.3858 3.02455 12.7713 3.07314 13.1541C0.477199 15.8438 0.514699 17.4375 1.02189 18.3113C1.50001 19.14 2.49751 19.5 3.81001 19.5C4.72128 19.4812 5.62718 19.3553 6.50907 19.125C7.83996 20.153 9.4324 20.7872 11.1056 20.9557C12.7788 21.1241 14.4657 20.8201 15.9748 20.0781C17.4839 19.3361 18.7547 18.1858 19.643 16.7579C20.5313 15.33 21.0014 13.6817 21 12C21.0002 11.6161 20.9761 11.2325 20.9278 10.8516C22.0997 9.63282 22.8797 8.475 23.145 7.48407C23.3278 6.79782 23.2725 6.19407 22.9791 5.68875ZM12 4.5C13.6987 4.50175 15.3466 5.07931 16.6748 6.13841C18.0029 7.1975 18.9327 8.67555 19.3125 10.3313C17.7131 11.8369 15.5484 13.3809 13.4934 14.5622C10.9106 16.0444 8.67001 16.9688 6.88314 17.475C5.78258 16.4486 5.01654 15.1145 4.68476 13.6466C4.35297 12.1787 4.4708 10.6449 5.02291 9.24494C5.57502 7.84494 6.53583 6.64359 7.78026 5.79729C9.02468 4.95099 10.4951 4.49894 12 4.5ZM2.31939 17.5584C2.18251 17.3231 2.25845 16.8797 2.52751 16.3397C2.79358 15.8337 3.1173 15.3603 3.4922 14.9288C3.86382 16.0055 4.43646 17.0019 5.1797 17.865C3.56251 18.1369 2.55376 17.9634 2.31939 17.5584ZM12 19.5C10.7354 19.5013 9.49137 19.1806 8.38501 18.5681C10.4157 17.8499 12.3751 16.9441 14.2378 15.8625C16.2609 14.7009 18.0516 13.4419 19.4944 12.1988C19.441 14.1517 18.6282 16.0069 17.2288 17.3702C15.8295 18.7335 13.9537 19.4976 12 19.5ZM21.6956 7.09594C21.5363 7.6875 21.1153 8.36438 20.5116 9.07688C20.1409 7.99887 19.5682 7.00139 18.8241 6.13782C20.1563 5.9175 21.39 5.93438 21.6834 6.44157C21.7678 6.58875 21.7725 6.80907 21.6956 7.09594Z" fill="white"/>
</g>
</svg>
