<svg width="40" height="40" viewBox="0 0 40 40" fill="none" xmlns="http://www.w3.org/2000/svg">
<path d="M34.9765 7.3625C34.9394 6.75301 34.6806 6.17815 34.2489 5.74638C33.8171 5.31461 33.2422 5.05579 32.6327 5.01875C30.6671 4.90156 25.6437 5.08125 21.4749 9.24844L20.7327 10H11.6187C11.2891 9.99814 10.9625 10.0618 10.6577 10.1874C10.353 10.3129 10.0763 10.4978 9.84367 10.7313L4.4843 16.0938C4.15562 16.4222 3.92499 16.8358 3.81828 17.288C3.71157 17.7402 3.73301 18.2133 3.88019 18.654C4.02738 19.0947 4.29447 19.4857 4.65151 19.7831C5.00855 20.0805 5.4414 20.2725 5.90149 20.3375L11.9124 21.1766L18.8202 28.0844L19.6593 34.0984C19.7238 34.5585 19.9158 34.9914 20.2134 35.3482C20.5111 35.7049 20.9026 35.9713 21.3437 36.1172C21.6006 36.203 21.8697 36.2468 22.1405 36.2469C22.4685 36.2475 22.7934 36.1832 23.0964 36.0577C23.3995 35.9322 23.6747 35.748 23.9062 35.5156L29.2687 30.1563C29.5021 29.9236 29.687 29.6469 29.8126 29.3422C29.9381 29.0375 30.0018 28.7108 29.9999 28.3813V19.2672L30.7452 18.5219C34.914 14.3531 35.0937 9.32969 34.9765 7.3625ZM11.6187 12.5H18.2327L12.0562 18.675L6.24992 17.8656L11.6187 12.5ZM23.2452 11.0234C24.4464 9.8149 25.8916 8.87657 27.4843 8.27112C29.077 7.66567 30.7805 7.40704 32.4812 7.5125C32.5907 9.21403 32.3348 10.9193 31.7305 12.5137C31.1263 14.1081 30.1878 15.5547 28.9781 16.7563L19.9999 25.7313L14.2687 20L23.2452 11.0234ZM27.4999 28.3813L22.1359 33.75L21.3249 27.9422L27.4999 21.7672V28.3813ZM15.9124 29.8656C15.2093 31.4063 12.8577 35 6.24992 35C5.9184 35 5.60046 34.8683 5.36604 34.6339C5.13162 34.3995 4.99992 34.0815 4.99992 33.75C4.99992 27.1422 8.59367 24.7906 10.1343 24.0859C10.2837 24.0178 10.445 23.9798 10.6091 23.974C10.7732 23.9682 10.9368 23.9948 11.0906 24.0523C11.2444 24.1097 11.3853 24.1969 11.5054 24.3089C11.6255 24.4208 11.7224 24.5553 11.7905 24.7047C11.8587 24.8541 11.8967 25.0154 11.9025 25.1795C11.9083 25.3436 11.8817 25.5072 11.8242 25.661C11.7667 25.8148 11.6796 25.9557 11.5676 26.0758C11.4557 26.1959 11.3212 26.2928 11.1718 26.3609C10.1671 26.8188 7.94992 28.2922 7.5593 32.4406C11.7077 32.05 13.1843 29.8328 13.639 28.8281C13.7071 28.6787 13.804 28.5442 13.9241 28.4323C14.0442 28.3204 14.1852 28.2332 14.339 28.1757C14.4928 28.1183 14.6564 28.0917 14.8204 28.0974C14.9845 28.1032 15.1459 28.1413 15.2952 28.2094C15.4446 28.2775 15.5791 28.3744 15.6911 28.4945C15.803 28.6146 15.8902 28.7556 15.9476 28.9094C16.0051 29.0632 16.0317 29.2268 16.0259 29.3908C16.0201 29.5549 15.9821 29.7162 15.914 29.8656H15.9124Z" fill="white"/>
</svg>
