<svg width="24" height="24" viewBox="0 0 24 24" fill="none" xmlns="http://www.w3.org/2000/svg">
<path d="M17.1609 5.25H6.75C5.83674 5.25 4.93297 5.43532 4.09341 5.79474C3.25385 6.15417 2.49596 6.68023 1.86561 7.34108C1.23527 8.00192 0.745584 8.78381 0.426199 9.6394C0.106814 10.495 -0.0356262 11.4065 0.00750008 12.3187C0.165938 15.7584 2.985 18.5803 6.42469 18.7425C7.91062 18.8119 9.42469 18.1894 11.0541 16.8394C11.321 16.6187 11.6565 16.4979 12.0028 16.4979C12.3492 16.4979 12.6847 16.6187 12.9516 16.8394C13.9425 17.6616 15.4688 18.75 17.25 18.75C18.144 18.7501 19.029 18.5726 19.8539 18.2278C20.6787 17.883 21.4268 17.3778 22.0547 16.7416C22.6827 16.1053 23.178 15.3507 23.512 14.5214C23.8459 13.6922 24.0118 12.8048 24 11.9109C23.9522 8.23781 20.8837 5.25 17.1609 5.25ZM20.9869 15.6881C20.4996 16.1845 19.918 16.5784 19.2762 16.8466C18.6345 17.1149 17.9456 17.252 17.25 17.25C15.9487 17.25 14.7188 16.3584 13.9078 15.6872C13.3716 15.2442 12.6979 15.0018 12.0023 15.0018C11.3068 15.0018 10.6331 15.2442 10.0969 15.6872C8.7675 16.7812 7.58813 17.2959 6.495 17.2444C5.19376 17.1736 3.96457 16.6245 3.04362 15.7025C2.12267 14.7805 1.57492 13.5507 1.50563 12.2494C1.47188 11.5397 1.58252 10.8306 1.83085 10.1649C2.07918 9.49929 2.46004 8.89097 2.95035 8.37682C3.44066 7.86267 4.03022 7.45338 4.68334 7.17375C5.33646 6.89412 6.03954 6.74996 6.75 6.75H17.1609C20.0672 6.75 22.4625 9.07406 22.5 11.9297C22.5111 12.6254 22.383 13.3163 22.1231 13.9618C21.8632 14.6072 21.4769 15.1942 20.9869 15.6881ZM17.25 9C17.25 9.19891 17.171 9.38968 17.0303 9.53033C16.8897 9.67098 16.6989 9.75 16.5 9.75H7.5C7.30109 9.75 7.11032 9.67098 6.96967 9.53033C6.82902 9.38968 6.75 9.19891 6.75 9C6.75 8.80109 6.82902 8.61032 6.96967 8.46967C7.11032 8.32902 7.30109 8.25 7.5 8.25H16.5C16.6989 8.25 16.8897 8.32902 17.0303 8.46967C17.171 8.61032 17.25 8.80109 17.25 9Z" fill="white"/>
</svg>
