<svg width="106" height="26" viewBox="0 0 106 26" fill="none" xmlns="http://www.w3.org/2000/svg">
<g clip-path="url(#clip0_1_27)">
<g filter="url(#filter0_dd_1_27)">
<path d="M82.787 21.328C82.5203 21.328 82.387 21.1947 82.387 20.928V4.128C82.387 3.86133 82.5203 3.728 82.787 3.728H91.347C91.5923 3.728 91.8057 3.81866 91.987 4L95.187 7.2C95.3683 7.37066 95.459 7.584 95.459 7.84V20.928C95.459 21.1947 95.3257 21.328 95.059 21.328H90.787C90.5203 21.328 90.387 21.1947 90.387 20.928V8.48C90.387 7.97866 90.1363 7.728 89.635 7.728H87.459V20.928C87.459 21.1947 87.3257 21.328 87.059 21.328H82.787Z" fill="#DB70DB"/>
</g>
<g filter="url(#filter1_dd_1_27)">
<path d="M71.2995 21.328C71.0542 21.328 70.8408 21.2373 70.6595 21.056L67.4595 17.856C67.2782 17.6853 67.1875 17.472 67.1875 17.216V7.84C67.1875 7.584 67.2782 7.37066 67.4595 7.2L70.6595 4C70.8408 3.81866 71.0542 3.728 71.2995 3.728H79.8595C80.1262 3.728 80.2595 3.86133 80.2595 4.128V20.928C80.2595 21.1947 80.1262 21.328 79.8595 21.328H76.5315C76.3928 21.328 76.2862 21.3013 76.2115 21.248C76.1475 21.1947 76.0728 21.1307 75.9875 21.056L75.1875 20.256L74.3875 21.056C74.2168 21.2373 74.0035 21.328 73.7475 21.328H71.2995ZM73.1715 17.6H74.2915C74.6328 17.6 74.8675 17.5307 74.9955 17.392C75.1235 17.2533 75.1875 17.008 75.1875 16.656V7.456H73.1715C72.8195 7.456 72.5795 7.52533 72.4515 7.664C72.3235 7.80266 72.2595 8.048 72.2595 8.4V16.656C72.2595 17.008 72.3235 17.2533 72.4515 17.392C72.5795 17.5307 72.8195 17.6 73.1715 17.6Z" fill="#DB70DB"/>
</g>
<g filter="url(#filter2_dd_1_27)">
<path d="M60.7013 21.328C60.4346 21.328 60.3013 21.1947 60.3013 20.928V0.4C60.3013 0.133333 60.4346 0 60.7013 0H64.9733C65.2399 0 65.3733 0.133333 65.3733 0.4V20.928C65.3733 21.1947 65.2399 21.328 64.9733 21.328H60.7013Z" fill="#DB70DB"/>
</g>
<g filter="url(#filter3_dd_1_27)">
<path d="M45.6808 26.128C45.4141 26.128 45.2808 25.9947 45.2808 25.728V4.128C45.2808 3.86133 45.4141 3.728 45.6808 3.728H48.9928C49.1848 3.728 49.3714 3.81866 49.5528 4L50.3528 4.8L51.1528 4C51.3234 3.81866 51.5368 3.728 51.7928 3.728H54.2408C54.4861 3.728 54.6994 3.81866 54.8808 4L58.0808 7.2C58.2621 7.37066 58.3528 7.584 58.3528 7.84V17.216C58.3528 17.472 58.2621 17.6853 58.0808 17.856L54.8808 21.056C54.6994 21.2373 54.4861 21.328 54.2408 21.328H51.7928C51.5368 21.328 51.3234 21.2373 51.1528 21.056L50.3528 20.256V25.728C50.3528 25.9947 50.2194 26.128 49.9528 26.128H45.6808ZM50.3528 17.6H52.3688C52.7208 17.6 52.9608 17.5307 53.0888 17.392C53.2168 17.2533 53.2808 17.008 53.2808 16.656V8.4C53.2808 8.048 53.2168 7.80266 53.0888 7.664C52.9608 7.52533 52.7208 7.456 52.3688 7.456H51.2488C50.9074 7.456 50.6728 7.52533 50.5448 7.664C50.4168 7.80266 50.3528 8.048 50.3528 8.4V17.6Z" fill="#DB70DB"/>
</g>
<path d="M34.1932 21.328C33.9479 21.328 33.7346 21.2373 33.5532 21.056L30.3532 17.856C30.1719 17.6853 30.0812 17.472 30.0812 17.216V7.84C30.0812 7.584 30.1719 7.37066 30.3532 7.2L33.5532 4C33.7346 3.81866 33.9479 3.728 34.1932 3.728H39.0412C39.2972 3.728 39.5106 3.81866 39.6812 4L42.8812 7.2C43.0626 7.37066 43.1532 7.584 43.1532 7.84V17.216C43.1532 17.472 43.0626 17.6853 42.8812 17.856L39.6812 21.056C39.5106 21.2373 39.2972 21.328 39.0412 21.328H34.1932ZM36.0652 17.6H37.1852C37.5266 17.6 37.7612 17.5307 37.8892 17.392C38.0172 17.2533 38.0812 17.008 38.0812 16.656V8.4C38.0812 8.048 38.0172 7.80266 37.8892 7.664C37.7612 7.52533 37.5266 7.456 37.1852 7.456H36.0652C35.7132 7.456 35.4732 7.52533 35.3452 7.664C35.2172 7.80266 35.1532 8.048 35.1532 8.4V16.656C35.1532 17.008 35.2172 17.2533 35.3452 17.392C35.4732 17.5307 35.7132 17.6 36.0652 17.6Z" fill="white"/>
<path d="M15.4265 21.328C15.1598 21.328 15.0265 21.1947 15.0265 20.928V14.848C15.0265 14.752 15.0318 14.6667 15.0425 14.592C15.0638 14.5067 15.1118 14.432 15.1865 14.368L17.2665 12.688V12.128L15.1225 10.416C15.0478 10.352 14.9998 10.2827 14.9785 10.208C14.9678 10.1227 14.9625 10.032 14.9625 9.936V4.128C14.9625 3.86133 15.0958 3.728 15.3625 3.728H19.6345C19.9012 3.728 20.0345 3.86133 20.0345 4.128V10.416H22.9465V4.128C22.9465 3.86133 23.0798 3.728 23.3465 3.728H27.6025C27.8692 3.728 28.0025 3.86133 28.0025 4.128V9.936C28.0025 10.032 27.9972 10.1227 27.9865 10.208C27.9758 10.2827 27.9278 10.352 27.8425 10.416L25.7145 12.128V12.688L27.9065 14.368C27.9918 14.4213 28.0398 14.4907 28.0505 14.576C28.0612 14.6613 28.0665 14.752 28.0665 14.848V20.928C28.0665 21.1947 27.9332 21.328 27.6665 21.328H23.3945C23.1278 21.328 22.9945 21.1947 22.9945 20.928V14.368H20.0825V20.928C20.0825 21.1947 19.9492 21.328 19.6825 21.328H15.4265Z" fill="white"/>
<path d="M7.28 21.328C7.17333 21.328 7.056 21.312 6.928 21.28C6.81067 21.248 6.69867 21.2213 6.592 21.2L3.744 20.496L0.48 19.408C0.16 19.3013 0 18.992 0 18.48V7.84C0 7.584 0.0906667 7.37066 0.272 7.2L3.472 4C3.65333 3.81866 3.86667 3.728 4.112 3.728H9.232C9.47733 3.728 9.69067 3.81866 9.872 4L13.072 7.2C13.2533 7.37066 13.344 7.584 13.344 7.84V14.4H4.752L4.64 16.528L6.912 17.28L10.992 17.568C11.1733 17.6 11.264 17.7227 11.264 17.936V20.928C11.264 21.1947 11.1307 21.328 10.864 21.328H7.28ZM6.64 11.888H6.944C7.46667 11.888 7.88267 11.6907 8.192 11.296C8.512 10.9013 8.672 10.368 8.672 9.696V9.376C8.672 8.71466 8.512 8.18666 8.192 7.792C7.88267 7.39733 7.46667 7.2 6.944 7.2H6.624C6.112 7.2 5.70133 7.39733 5.392 7.792C5.09333 8.18666 4.944 8.71466 4.944 9.376V9.696C4.944 10.368 5.09333 10.9013 5.392 11.296C5.70133 11.6907 6.11733 11.888 6.64 11.888Z" fill="white"/>
</g>
<defs>
<filter id="filter0_dd_1_27" x="72.387" y="-6.272" width="33.072" height="37.6" filterUnits="userSpaceOnUse" color-interpolation-filters="sRGB">
<feFlood flood-opacity="0" result="BackgroundImageFix"/>
<feColorMatrix in="SourceAlpha" type="matrix" values="0 0 0 0 0 0 0 0 0 0 0 0 0 0 0 0 0 0 127 0" result="hardAlpha"/>
<feOffset/>
<feGaussianBlur stdDeviation="5"/>
<feComposite in2="hardAlpha" operator="out"/>
<feColorMatrix type="matrix" values="0 0 0 0 0.937255 0 0 0 0 0.282353 0 0 0 0 0.937255 0 0 0 1 0"/>
<feBlend mode="normal" in2="BackgroundImageFix" result="effect1_dropShadow_1_27"/>
<feColorMatrix in="SourceAlpha" type="matrix" values="0 0 0 0 0 0 0 0 0 0 0 0 0 0 0 0 0 0 127 0" result="hardAlpha"/>
<feOffset/>
<feGaussianBlur stdDeviation="5"/>
<feComposite in2="hardAlpha" operator="out"/>
<feColorMatrix type="matrix" values="0 0 0 0 0 0 0 0 0 0 0 0 0 0 0 0 0 0 0.5 0"/>
<feBlend mode="normal" in2="effect1_dropShadow_1_27" result="effect2_dropShadow_1_27"/>
<feBlend mode="normal" in="SourceGraphic" in2="effect2_dropShadow_1_27" result="shape"/>
</filter>
<filter id="filter1_dd_1_27" x="57.1875" y="-6.272" width="33.072" height="37.6" filterUnits="userSpaceOnUse" color-interpolation-filters="sRGB">
<feFlood flood-opacity="0" result="BackgroundImageFix"/>
<feColorMatrix in="SourceAlpha" type="matrix" values="0 0 0 0 0 0 0 0 0 0 0 0 0 0 0 0 0 0 127 0" result="hardAlpha"/>
<feOffset/>
<feGaussianBlur stdDeviation="5"/>
<feComposite in2="hardAlpha" operator="out"/>
<feColorMatrix type="matrix" values="0 0 0 0 0.937255 0 0 0 0 0.282353 0 0 0 0 0.937255 0 0 0 1 0"/>
<feBlend mode="normal" in2="BackgroundImageFix" result="effect1_dropShadow_1_27"/>
<feColorMatrix in="SourceAlpha" type="matrix" values="0 0 0 0 0 0 0 0 0 0 0 0 0 0 0 0 0 0 127 0" result="hardAlpha"/>
<feOffset/>
<feGaussianBlur stdDeviation="5"/>
<feComposite in2="hardAlpha" operator="out"/>
<feColorMatrix type="matrix" values="0 0 0 0 0 0 0 0 0 0 0 0 0 0 0 0 0 0 0.5 0"/>
<feBlend mode="normal" in2="effect1_dropShadow_1_27" result="effect2_dropShadow_1_27"/>
<feBlend mode="normal" in="SourceGraphic" in2="effect2_dropShadow_1_27" result="shape"/>
</filter>
<filter id="filter2_dd_1_27" x="50.3013" y="-10" width="25.072" height="41.328" filterUnits="userSpaceOnUse" color-interpolation-filters="sRGB">
<feFlood flood-opacity="0" result="BackgroundImageFix"/>
<feColorMatrix in="SourceAlpha" type="matrix" values="0 0 0 0 0 0 0 0 0 0 0 0 0 0 0 0 0 0 127 0" result="hardAlpha"/>
<feOffset/>
<feGaussianBlur stdDeviation="5"/>
<feComposite in2="hardAlpha" operator="out"/>
<feColorMatrix type="matrix" values="0 0 0 0 0.937255 0 0 0 0 0.282353 0 0 0 0 0.937255 0 0 0 1 0"/>
<feBlend mode="normal" in2="BackgroundImageFix" result="effect1_dropShadow_1_27"/>
<feColorMatrix in="SourceAlpha" type="matrix" values="0 0 0 0 0 0 0 0 0 0 0 0 0 0 0 0 0 0 127 0" result="hardAlpha"/>
<feOffset/>
<feGaussianBlur stdDeviation="5"/>
<feComposite in2="hardAlpha" operator="out"/>
<feColorMatrix type="matrix" values="0 0 0 0 0 0 0 0 0 0 0 0 0 0 0 0 0 0 0.5 0"/>
<feBlend mode="normal" in2="effect1_dropShadow_1_27" result="effect2_dropShadow_1_27"/>
<feBlend mode="normal" in="SourceGraphic" in2="effect2_dropShadow_1_27" result="shape"/>
</filter>
<filter id="filter3_dd_1_27" x="35.2808" y="-6.272" width="33.072" height="42.4" filterUnits="userSpaceOnUse" color-interpolation-filters="sRGB">
<feFlood flood-opacity="0" result="BackgroundImageFix"/>
<feColorMatrix in="SourceAlpha" type="matrix" values="0 0 0 0 0 0 0 0 0 0 0 0 0 0 0 0 0 0 127 0" result="hardAlpha"/>
<feOffset/>
<feGaussianBlur stdDeviation="5"/>
<feComposite in2="hardAlpha" operator="out"/>
<feColorMatrix type="matrix" values="0 0 0 0 0.937255 0 0 0 0 0.282353 0 0 0 0 0.937255 0 0 0 1 0"/>
<feBlend mode="normal" in2="BackgroundImageFix" result="effect1_dropShadow_1_27"/>
<feColorMatrix in="SourceAlpha" type="matrix" values="0 0 0 0 0 0 0 0 0 0 0 0 0 0 0 0 0 0 127 0" result="hardAlpha"/>
<feOffset/>
<feGaussianBlur stdDeviation="5"/>
<feComposite in2="hardAlpha" operator="out"/>
<feColorMatrix type="matrix" values="0 0 0 0 0 0 0 0 0 0 0 0 0 0 0 0 0 0 0.5 0"/>
<feBlend mode="normal" in2="effect1_dropShadow_1_27" result="effect2_dropShadow_1_27"/>
<feBlend mode="normal" in="SourceGraphic" in2="effect2_dropShadow_1_27" result="shape"/>
</filter>
<clipPath id="clip0_1_27">
<rect width="106" height="26" fill="white"/>
</clipPath>
</defs>
</svg>
