<svg width="40" height="40" viewBox="0 0 40 40" fill="none" xmlns="http://www.w3.org/2000/svg">
<path d="M6.61542 15.8844L19.1154 28.3844C19.2315 28.5006 19.3694 28.5928 19.5211 28.6557C19.6729 28.7186 19.8355 28.751 19.9998 28.751C20.1641 28.751 20.3267 28.7186 20.4785 28.6557C20.6302 28.5928 20.7681 28.5006 20.8842 28.3844L33.3842 15.8844C33.6187 15.6498 33.7505 15.3317 33.7505 15C33.7505 14.6683 33.6187 14.3502 33.3842 14.1156C33.1496 13.8811 32.8315 13.7493 32.4998 13.7493C32.1681 13.7493 31.85 13.8811 31.6154 14.1156L19.9998 25.7328L8.38417 14.1156C8.26803 13.9995 8.13015 13.9074 7.97841 13.8445C7.82667 13.7817 7.66404 13.7493 7.49979 13.7493C7.33555 13.7493 7.17291 13.7817 7.02117 13.8445C6.86943 13.9074 6.73155 13.9995 6.61542 14.1156C6.49928 14.2318 6.40715 14.3697 6.3443 14.5214C6.28145 14.6731 6.2491 14.8358 6.2491 15C6.2491 15.1643 6.28145 15.3269 6.3443 15.4786C6.40715 15.6304 6.49928 15.7683 6.61542 15.8844Z" fill="white"/>
</svg>
