<svg width="20" height="20" viewBox="0 0 20 20" fill="none" xmlns="http://www.w3.org/2000/svg">
<path d="M18.0156 3.86949C17.9194 3.64723 17.76 3.45816 17.5572 3.32578C17.3544 3.19341 17.1172 3.12357 16.875 3.12496H3.12498C2.88305 3.12544 2.64646 3.19611 2.4439 3.3284C2.24135 3.4607 2.08154 3.64893 1.98386 3.87026C1.88618 4.09159 1.85483 4.33651 1.8936 4.57532C1.93238 4.81412 2.03963 5.03653 2.20232 5.21558L2.20857 5.22262L7.49998 10.8726V16.875C7.49993 17.1012 7.56127 17.3232 7.67747 17.5173C7.79368 17.7114 7.96038 17.8703 8.15981 17.9772C8.35924 18.084 8.58392 18.1347 8.8099 18.1238C9.03587 18.113 9.25466 18.041 9.44295 17.9156L11.9429 16.2484C12.1143 16.1342 12.2548 15.9795 12.352 15.798C12.4492 15.6164 12.5 15.4137 12.5 15.2078V10.8726L17.7922 5.22262L17.7984 5.21558C17.9628 5.03735 18.0711 4.81464 18.1097 4.57525C18.1484 4.33586 18.1156 4.09039 18.0156 3.86949ZM11.4203 10.2015C11.3122 10.3162 11.2513 10.4674 11.25 10.625V15.2078L8.74998 16.875V10.625C8.75003 10.4663 8.6897 10.3135 8.58123 10.1976L3.12498 4.37496H16.875L11.4203 10.2015Z" fill="white"/>
</svg>
